<!DOCTYPE svg PUBLIC "-//W3C//DTD SVG 1.1//EN" "http://www.w3.org/Graphics/SVG/1.1/DTD/svg11.dtd">
<!-- Uploaded to: SVG Repo, www.svgrepo.com, Transformed by: SVG Repo Mixer Tools -->
<svg fill="#f5f5f5" width="800px" height="800px" viewBox="0 0 256 256" id="Flat" xmlns="http://www.w3.org/2000/svg" stroke="#f5f5f5">
<g id="SVGRepo_bgCarrier" stroke-width="0"/>
<g id="SVGRepo_tracerCarrier" stroke-linecap="round" stroke-linejoin="round"/>
<g id="SVGRepo_iconCarrier"> <path d="M76,36a40,40,0,1,0,40,40A40.04552,40.04552,0,0,0,76,36Zm0,72a32,32,0,1,1,32-32A32.03635,32.03635,0,0,1,76,108Zm104,8a40,40,0,1,0-40-40A40.04552,40.04552,0,0,0,180,116Zm0-72a32,32,0,1,1-32,32A32.03635,32.03635,0,0,1,180,44ZM76,140a40,40,0,1,0,40,40A40.04552,40.04552,0,0,0,76,140Zm0,72a32,32,0,1,1,32-32A32.03635,32.03635,0,0,1,76,212Zm136-32a4.0002,4.0002,0,0,1-4,4H184v24a4,4,0,0,1-8,0V184H152a4,4,0,0,1,0-8h24V152a4,4,0,0,1,8,0v24h24A4.0002,4.0002,0,0,1,212,180Z"/> </g>
</svg>